<svg width="171" height="146" viewBox="0 0 171 146" fill="none" xmlns="http://www.w3.org/2000/svg">
<g clip-path="url(#clip0_508_1598)">
<path d="M97.4125 125.027L67.2774 124.91C66.5007 124.907 65.8899 124.243 66.0683 123.596L78.1912 78.7759C78.2626 78.5627 78.4024 78.379 78.5887 78.2534C78.7751 78.1278 78.9976 78.0672 79.2218 78.081L109.357 78.1979C110.134 78.2009 110.745 78.8647 110.566 79.512L98.4431 124.332C98.3717 124.546 98.2319 124.729 98.0456 124.855C97.8592 124.98 97.6367 125.041 97.4125 125.027Z" fill="#FFF4EB"/>
<path d="M74.5875 94.8018C77.2303 93.5209 80.0442 92.8041 82.8413 91.9587C84.2246 91.5712 85.5515 91.0046 86.7883 90.2733C88.0272 89.4663 89.1107 88.4424 89.9868 87.2507C92.2779 84.3088 94.2925 80.8171 96.9997 78.1506L89.6633 78.1221C88.5858 78.9119 87.6331 79.8595 86.8374 80.9332C85.9526 82.1755 85.1914 83.5088 84.1878 84.6644C83.2772 85.6813 82.1705 86.5035 80.9342 87.0813C79.1635 87.9382 77.2662 88.4756 75.4004 89.0962L73.7383 95.2398C74.0172 95.0881 74.2996 94.9402 74.5875 94.8018Z" fill="#F2E0D8"/>
<path d="M104.102 88.5021C101.82 90.0358 100.1 92.1262 98.2783 94.1509C96.7552 95.8431 95.1069 97.4431 93.101 98.5547C91.2181 99.5972 89.1804 100.276 87.3447 101.427C84.0327 103.515 81.516 106.654 80.1974 110.342C79.3777 112.552 78.872 114.858 77.9323 117.027C76.9714 119.244 75.5328 121.017 73.8042 122.681C73.0128 123.442 72.1899 124.174 71.3887 124.928L97.4116 125.029C97.6358 125.042 97.8583 124.982 98.0446 124.856C98.2309 124.731 98.3706 124.547 98.442 124.334L108.758 86.1934C107.11 86.752 105.544 87.5284 104.102 88.5021Z" fill="#F2E0D8"/>
<path d="M96.1819 121.777L70.1687 121.659C69.4985 121.656 68.9708 121.084 69.1245 120.527L79.5638 81.9289C79.6255 81.7451 79.7462 81.5869 79.907 81.4788C80.0677 81.3707 80.2596 81.3187 80.4529 81.3308L106.466 81.4485C107.137 81.4515 107.664 82.0238 107.511 82.581L97.0711 121.179C97.0094 121.363 96.8888 121.521 96.728 121.629C96.5672 121.737 96.3752 121.789 96.1819 121.777Z" fill="#E61E27"/>
<path d="M93.978 117.057L73.062 117.253C72.9413 117.261 72.8205 117.24 72.7089 117.194C72.5973 117.147 72.4978 117.076 72.418 116.985C72.3382 116.894 72.2802 116.786 72.2485 116.669C72.2168 116.553 72.2121 116.43 72.235 116.311L81.0667 83.6907C81.1147 83.5381 81.2111 83.4053 81.3415 83.3126C81.4718 83.2199 81.6288 83.1724 81.7886 83.1772L102.705 82.981C102.825 82.9736 102.946 82.9939 103.058 83.0404C103.169 83.0868 103.269 83.1582 103.348 83.2491C103.428 83.34 103.486 83.4479 103.518 83.5646C103.55 83.6814 103.554 83.8038 103.532 83.9226L94.6996 116.543C94.6517 116.696 94.5552 116.829 94.4249 116.921C94.2947 117.014 94.1377 117.062 93.978 117.057Z" fill="#FFF4EB"/>
<path d="M92.2436 112.781C91.8433 113.034 91.4066 113.225 90.9487 113.347C90.5592 113.448 89.7187 113.692 89.7779 113.029C89.7906 112.91 89.821 112.794 89.868 112.683C90.4449 112.232 90.9469 111.693 91.3552 111.085C91.3854 111.04 91.3267 110.987 91.2827 111.013C90.837 111.27 90.4488 111.616 90.142 112.03C90.0016 112.212 89.8806 112.407 89.7808 112.614C89.5066 112.827 89.216 113.018 88.9117 113.185C88.672 113.32 88.422 113.437 88.1641 113.533C87.9427 113.612 87.6896 113.571 87.6896 113.286C87.6902 113.262 87.6922 113.238 87.6956 113.214C88.1958 112.824 88.616 112.341 88.9327 111.792C88.9617 111.742 88.9055 111.7 88.8604 111.719C88.5881 111.832 88.3414 111.999 88.135 112.21C87.9287 112.421 87.767 112.671 87.6597 112.946C87.6322 113.017 87.6111 113.091 87.5967 113.167C87.4577 113.273 87.3115 113.369 87.1592 113.455C86.5128 113.816 86.446 113.192 86.4984 112.729C86.5299 112.455 86.669 112.033 86.5272 111.772C86.4099 111.554 86.1842 111.613 85.9982 111.698C85.6427 111.868 85.3028 112.069 84.9824 112.299C84.3437 112.744 83.7713 113.278 83.2823 113.884C83.2396 113.936 83.3141 114.012 83.357 113.959C83.8857 113.302 84.5133 112.732 85.2171 112.268C85.3876 112.156 85.5625 112.051 85.7415 111.952C85.9523 111.836 86.4648 111.531 86.4699 112.015C86.474 112.383 86.3485 112.747 86.3716 113.116C86.366 113.219 86.3875 113.323 86.434 113.415C86.4804 113.508 86.5502 113.587 86.6364 113.644C86.908 113.779 87.2113 113.556 87.4278 113.411C87.4821 113.375 87.5329 113.337 87.5848 113.299C87.5809 113.39 87.6068 113.48 87.6584 113.556C87.8091 113.762 88.0704 113.686 88.2684 113.607C88.7811 113.402 89.2655 113.132 89.71 112.804C89.6651 112.942 89.6548 113.089 89.6801 113.232C89.7727 113.687 90.2841 113.588 90.6271 113.527C91.2202 113.418 91.787 113.197 92.2968 112.874C92.3547 112.836 92.3004 112.743 92.2436 112.781ZM87.7896 112.907C87.9821 112.467 88.3205 112.107 88.7474 111.888C88.4739 112.33 88.1309 112.725 87.7317 113.057C87.7491 113.007 87.7689 112.956 87.7901 112.906L87.7896 112.907ZM90.3503 111.933C90.5691 111.671 90.8238 111.441 91.107 111.25C90.781 111.697 90.4014 112.103 89.9766 112.458C90.0862 112.272 90.2114 112.097 90.3509 111.933H90.3503Z" fill="#573439"/>
<path d="M84.7568 110.363C84.5132 110.513 84.2394 110.607 83.955 110.639C83.6706 110.671 83.3827 110.639 83.112 110.546C82.6142 110.401 82.2511 110.74 81.8269 110.957C81.3086 111.222 80.7648 111.433 80.2039 111.588C79.9239 111.666 79.4858 111.823 79.3652 111.445C79.3158 111.222 79.3338 110.989 79.4168 110.775C79.4318 110.726 79.3717 110.702 79.3381 110.729C78.873 111.103 78.3439 111.388 77.7767 111.572C77.522 111.67 77.2525 111.724 76.9796 111.731C76.8623 111.734 76.7465 111.704 76.6447 111.646C76.4209 111.488 76.5293 111.235 76.6664 111.058C77.0287 110.59 77.527 110.245 78.0928 110.071C78.1453 110.05 78.2023 110.043 78.2583 110.05C78.3144 110.057 78.3677 110.079 78.4134 110.112C78.459 110.145 78.4954 110.19 78.5191 110.241C78.5429 110.293 78.5532 110.349 78.5491 110.405C78.5265 110.574 78.4455 110.729 78.3201 110.843C78.0963 111.068 77.8072 111.217 77.494 111.269C77.4342 111.279 77.4595 111.37 77.519 111.359C77.9717 111.276 78.652 110.92 78.6425 110.375C78.6441 110.28 78.614 110.187 78.5568 110.11C78.4997 110.034 78.4188 109.979 78.3269 109.953C78.0561 109.954 77.7918 110.036 77.5689 110.19C77.2952 110.335 77.0445 110.52 76.825 110.738C76.6469 110.916 76.3788 111.176 76.4155 111.454C76.4731 111.893 77.0782 111.846 77.3845 111.777C78.0757 111.617 78.7251 111.312 79.2895 110.882C79.2159 111.186 79.1868 111.597 79.4983 111.747C79.7318 111.859 80.0398 111.732 80.2693 111.667C80.6048 111.573 80.9343 111.458 81.256 111.324C81.5558 111.199 81.8485 111.058 82.1327 110.9C82.2715 110.823 82.4043 110.731 82.5488 110.663C82.645 110.622 82.7484 110.601 82.853 110.6C82.9577 110.599 83.0614 110.619 83.1582 110.659C83.4318 110.745 83.7207 110.77 84.0049 110.733C84.2892 110.695 84.5619 110.597 84.8043 110.444C84.8553 110.412 84.8084 110.33 84.7568 110.363Z" fill="#573439"/>
<path d="M100.384 85.5982H83.1042C83.0823 85.5982 83.0612 85.5895 83.0457 85.5739C83.0302 85.5584 83.0215 85.5374 83.0215 85.5154C83.0215 85.4934 83.0302 85.4724 83.0457 85.4569C83.0612 85.4413 83.0823 85.4326 83.1042 85.4326H100.384C100.406 85.4326 100.427 85.4413 100.442 85.4569C100.458 85.4724 100.467 85.4934 100.467 85.5154C100.467 85.5374 100.458 85.5584 100.442 85.5739C100.427 85.5895 100.406 85.5982 100.384 85.5982Z" fill="#573439"/>
<path d="M99.9777 87.0425H82.698C82.676 87.0425 82.655 87.0338 82.6395 87.0183C82.624 87.0027 82.6152 86.9817 82.6152 86.9597C82.6152 86.9378 82.624 86.9167 82.6395 86.9012C82.655 86.8857 82.676 86.877 82.698 86.877H99.9777C99.9996 86.877 100.021 86.8857 100.036 86.9012C100.052 86.9167 100.06 86.9378 100.06 86.9597C100.06 86.9817 100.052 87.0027 100.036 87.0183C100.021 87.0338 99.9996 87.0425 99.9777 87.0425Z" fill="#573439"/>
<path d="M99.5695 88.4868H82.2897C82.2678 88.4868 82.2468 88.4781 82.2313 88.4626C82.2158 88.4471 82.207 88.426 82.207 88.4041C82.207 88.3821 82.2158 88.3611 82.2313 88.3455C82.2468 88.33 82.2678 88.3213 82.2897 88.3213H99.5695C99.5914 88.3213 99.6125 88.33 99.628 88.3455C99.6435 88.3611 99.6522 88.3821 99.6522 88.4041C99.6522 88.426 99.6435 88.4471 99.628 88.4626C99.6125 88.4781 99.5914 88.4868 99.5695 88.4868Z" fill="#573439"/>
<path d="M99.1632 89.9312H81.8835C81.8616 89.9312 81.8405 89.9225 81.825 89.9069C81.8095 89.8914 81.8008 89.8704 81.8008 89.8484C81.8008 89.8264 81.8095 89.8054 81.825 89.7899C81.8405 89.7743 81.8616 89.7656 81.8835 89.7656H99.1632C99.1852 89.7656 99.2062 89.7743 99.2217 89.7899C99.2372 89.8054 99.2459 89.8264 99.2459 89.8484C99.2459 89.8704 99.2372 89.8914 99.2217 89.9069C99.2062 89.9225 99.1852 89.9312 99.1632 89.9312Z" fill="#573439"/>
<path d="M98.7552 91.3758H81.4754C81.4535 91.3758 81.4324 91.3671 81.4168 91.3515C81.4013 91.336 81.3926 91.3149 81.3926 91.2929C81.3926 91.2709 81.4013 91.2498 81.4168 91.2343C81.4324 91.2187 81.4535 91.21 81.4754 91.21H98.7552C98.7771 91.21 98.7982 91.2187 98.8137 91.2343C98.8293 91.2498 98.838 91.2709 98.838 91.2929C98.838 91.3149 98.8293 91.336 98.8137 91.3515C98.7982 91.3671 98.7771 91.3758 98.7552 91.3758Z" fill="#573439"/>
<path d="M98.3489 92.8211H81.0692C81.0472 92.8211 81.0261 92.8124 81.0106 92.7968C80.9951 92.7813 80.9863 92.7602 80.9863 92.7382C80.9863 92.7162 80.9951 92.6951 81.0106 92.6796C81.0261 92.664 81.0472 92.6553 81.0692 92.6553H98.3489C98.3709 92.6553 98.392 92.664 98.4075 92.6796C98.423 92.6951 98.4317 92.7162 98.4317 92.7382C98.4317 92.7602 98.423 92.7813 98.4075 92.7968C98.392 92.8124 98.3709 92.8211 98.3489 92.8211Z" fill="#573439"/>
<path d="M97.9407 94.2655H80.661C80.639 94.2655 80.6179 94.2567 80.6024 94.2412C80.5869 94.2256 80.5781 94.2045 80.5781 94.1825C80.5781 94.1605 80.5869 94.1395 80.6024 94.1239C80.6179 94.1084 80.639 94.0996 80.661 94.0996H97.9407C97.9627 94.0996 97.9838 94.1084 97.9993 94.1239C98.0148 94.1395 98.0235 94.1605 98.0235 94.1825C98.0235 94.2045 98.0148 94.2256 97.9993 94.2412C97.9838 94.2567 97.9627 94.2655 97.9407 94.2655Z" fill="#573439"/>
<path d="M97.5328 95.7098H80.2528C80.2308 95.7098 80.2097 95.701 80.1942 95.6855C80.1787 95.6699 80.1699 95.6488 80.1699 95.6269C80.1699 95.6049 80.1787 95.5838 80.1942 95.5682C80.2097 95.5527 80.2308 95.5439 80.2528 95.5439H97.5328C97.5547 95.5439 97.5758 95.5527 97.5913 95.5682C97.6069 95.5838 97.6156 95.6049 97.6156 95.6269C97.6156 95.6488 97.6069 95.6699 97.5913 95.6855C97.5758 95.701 97.5547 95.7098 97.5328 95.7098Z" fill="#573439"/>
<path d="M97.1261 97.1548H79.8464C79.8244 97.1548 79.8034 97.1461 79.7879 97.1306C79.7724 97.115 79.7637 97.094 79.7637 97.072C79.7637 97.0501 79.7724 97.029 79.7879 97.0135C79.8034 96.998 79.8244 96.9893 79.8464 96.9893H97.1261C97.148 96.9893 97.1691 96.998 97.1846 97.0135C97.2001 97.029 97.2088 97.0501 97.2088 97.072C97.2088 97.094 97.2001 97.115 97.1846 97.1306C97.1691 97.1461 97.148 97.1548 97.1261 97.1548Z" fill="#573439"/>
<path d="M96.7196 98.5991H79.4401C79.4182 98.5991 79.3971 98.5904 79.3816 98.5749C79.3661 98.5594 79.3574 98.5383 79.3574 98.5164C79.3574 98.4944 79.3661 98.4734 79.3816 98.4578C79.3971 98.4423 79.4182 98.4336 79.4401 98.4336H96.7196C96.7415 98.4336 96.7626 98.4423 96.7781 98.4578C96.7936 98.4734 96.8023 98.4944 96.8023 98.5164C96.8023 98.5383 96.7936 98.5594 96.7781 98.5749C96.7626 98.5904 96.7415 98.5991 96.7196 98.5991Z" fill="#573439"/>
<path d="M96.3114 100.043H79.0319C79.01 100.043 78.9889 100.035 78.9734 100.019C78.9579 100.004 78.9492 99.9827 78.9492 99.9607C78.9492 99.9388 78.9579 99.9177 78.9734 99.9022C78.9889 99.8866 79.01 99.8779 79.0319 99.8779H96.3114C96.3333 99.8779 96.3543 99.8866 96.3699 99.9022C96.3854 99.9177 96.3941 99.9388 96.3941 99.9607C96.3941 99.9827 96.3854 100.004 96.3699 100.019C96.3543 100.035 96.3333 100.043 96.3114 100.043Z" fill="#573439"/>
<path d="M95.9034 101.489H78.6237C78.6018 101.489 78.5807 101.48 78.5652 101.465C78.5497 101.449 78.541 101.428 78.541 101.406C78.541 101.384 78.5497 101.363 78.5652 101.347C78.5807 101.332 78.6018 101.323 78.6237 101.323H95.9034C95.9254 101.323 95.9464 101.332 95.9619 101.347C95.9774 101.363 95.9861 101.384 95.9861 101.406C95.9861 101.428 95.9774 101.449 95.9619 101.465C95.9464 101.48 95.9254 101.489 95.9034 101.489Z" fill="#573439"/>
<path d="M95.4973 102.932H78.2176C78.1956 102.932 78.1746 102.924 78.159 102.908C78.1435 102.893 78.1348 102.871 78.1348 102.85C78.1348 102.828 78.1435 102.806 78.159 102.791C78.1746 102.775 78.1956 102.767 78.2176 102.767H95.4973C95.5193 102.767 95.5404 102.775 95.5559 102.791C95.5714 102.806 95.5802 102.828 95.5802 102.85C95.5802 102.871 95.5714 102.893 95.5559 102.908C95.5404 102.924 95.5193 102.932 95.4973 102.932Z" fill="#573439"/>
<path d="M95.0887 104.377H77.8092C77.7873 104.377 77.7663 104.369 77.7508 104.353C77.7353 104.338 77.7266 104.317 77.7266 104.295C77.7266 104.273 77.7353 104.252 77.7508 104.236C77.7663 104.221 77.7873 104.212 77.8092 104.212H95.0887C95.1107 104.212 95.1317 104.221 95.1472 104.236C95.1627 104.252 95.1714 104.273 95.1714 104.295C95.1714 104.317 95.1627 104.338 95.1472 104.353C95.1317 104.369 95.1107 104.377 95.0887 104.377Z" fill="#573439"/>
<path d="M91.6805 79.1406C91.6178 79.0799 91.5339 79.0459 91.4466 79.0459C91.3593 79.0459 91.2753 79.0799 91.2126 79.1406L91.1583 79.195C91.0985 79.2576 91.0655 79.3411 91.0664 79.4277C91.0674 79.5143 91.1021 79.5971 91.1633 79.6584C91.2245 79.7196 91.3072 79.7545 91.3937 79.7555C91.4802 79.7565 91.5637 79.7235 91.6262 79.6637L91.6805 79.6093C91.7417 79.5467 91.776 79.4625 91.776 79.375C91.776 79.2874 91.7417 79.2033 91.6805 79.1406Z" fill="#573439"/>
<path d="M96.8528 79.4023H92.7703C92.7484 79.4023 92.7273 79.4111 92.7118 79.4266C92.6962 79.4422 92.6875 79.4633 92.6875 79.4852C92.6875 79.5072 92.6962 79.5283 92.7118 79.5439C92.7273 79.5594 92.7484 79.5681 92.7703 79.5681H96.8528C96.8748 79.5681 96.8959 79.5594 96.9114 79.5439C96.927 79.5283 96.9357 79.5072 96.9357 79.4852C96.9357 79.4633 96.927 79.4422 96.9114 79.4266C96.8959 79.4111 96.8748 79.4023 96.8528 79.4023Z" fill="#573439"/>
<path d="M71.6319 106.846C70.7356 106.248 78.8175 107.019 79.0237 106.982C79.6904 106.866 81.5597 108.589 84.617 108.239C85.5515 108.132 88.0355 106.853 88.1034 105.36C88.1197 105.003 85.5852 101.575 85.3153 101.598C83.135 101.789 80.5323 100.756 73.8271 103.002C73.6541 103.061 71.804 107.091 71.6319 106.846Z" fill="#FFBC9E"/>
<path d="M95.0327 104.444C95.2288 103.401 95.8369 101.916 95.3912 100.865C93.2943 100.682 89.0464 100.416 88.3827 100.314C86.5391 99.6851 84.6046 99.005 82.7374 98.8329C81.8089 98.7473 80.92 99.1273 79.9917 99.0996C79.4927 99.081 78.9981 98.9996 78.5194 98.8573C78.131 98.7451 77.7772 98.5877 77.4246 98.8459C77.3493 98.9042 77.2972 98.9875 77.2777 99.0808C77.2428 99.2486 77.2655 99.4233 77.3421 99.5766C77.8823 100.684 78.5449 101.069 79.4569 101.085C79.9067 101.093 80.3331 101.08 80.7671 101.124C80.9854 101.321 81.1312 101.586 81.1813 101.877C81.2315 102.167 81.183 102.466 81.0436 102.725C80.7149 103.466 78.9838 105.447 78.5371 106.022C77.841 106.919 82.0017 108.618 82.9167 108.274C83.9064 107.902 86.8588 106.078 87.6078 105.138C87.8446 104.84 92.3063 105.464 94.8505 105.722C94.9005 105.295 94.9531 104.867 95.0327 104.444Z" fill="#FFBC9E"/>
<path d="M73.8717 103.724C73.9053 103.803 73.9576 103.874 74.024 103.929C74.0904 103.984 74.169 104.022 74.2532 104.04C74.6467 104.164 75.0502 104.252 75.4591 104.306C76.7975 104.546 78.2263 104.517 79.3268 103.45C79.9987 102.797 80.4432 101.949 81.3351 101.843C82.0594 101.757 82.7974 102.014 83.526 102.031C83.9918 102.042 84.5309 101.94 84.8125 101.387C85.0043 101.01 85.1151 100.191 84.7884 99.8221C84.5583 99.5622 84.2096 99.8126 83.9223 99.8531C83.126 99.9685 82.3158 99.9434 81.5282 99.7788C80.7303 99.6103 79.8716 99.0832 79.1054 99.4964C78.4351 99.8574 77.9992 100.71 77.4515 101.313C76.6095 102.241 75.568 102.113 74.5265 101.755C74.4355 101.724 74.3798 101.799 74.3635 101.895C74.3474 101.906 74.3335 101.92 74.3225 101.936C74.0841 102.279 73.6297 103.155 73.8717 103.724Z" fill="#FFBC9E"/>
<path d="M85.3043 100.299C85.0493 99.9646 84.6473 99.9689 84.2603 99.9855C83.5158 100.025 82.7695 100.007 82.0276 99.9341C81.3956 99.8662 80.7539 99.6922 80.1151 99.7395C79.5205 99.8253 78.9566 100.058 78.4742 100.416C78.3843 100.473 78.4839 100.606 78.5738 100.548C79.1056 100.213 79.6379 99.9088 80.2848 99.898C80.8613 99.9293 81.4352 99.9961 82.0034 100.098C82.5013 100.151 83.0017 100.177 83.5023 100.175C83.96 100.175 84.7647 99.9757 85.1275 100.349C84.8057 101.255 83.869 101.678 82.9657 101.78C82.4347 101.822 81.9016 101.831 81.3696 101.805C81.0081 101.8 80.6691 101.774 80.3769 102.015C80.1021 102.275 79.8449 102.553 79.6072 102.848C79.2843 103.214 78.922 103.544 78.5269 103.83C77.705 104.399 76.5318 104.716 75.5538 104.847C75.543 104.848 75.5325 104.851 75.523 104.857C75.5135 104.862 75.5051 104.869 75.4984 104.878C75.4916 104.886 75.4866 104.896 75.4836 104.906C75.4807 104.917 75.4798 104.928 75.481 104.939C75.4823 104.949 75.4856 104.96 75.4909 104.969C75.4962 104.979 75.5033 104.987 75.5118 104.994C75.5204 105.001 75.5301 105.006 75.5406 105.009C75.5511 105.012 75.562 105.013 75.5728 105.012C76.5648 104.895 77.525 104.588 78.4011 104.108C78.7691 103.879 79.1073 103.606 79.4082 103.294C79.7612 102.941 80.06 102.502 80.4418 102.183C80.4627 102.165 80.4845 102.149 80.507 102.135C80.4812 102.232 80.4669 102.333 80.4646 102.434C80.4611 102.725 80.5874 102.966 80.4646 103.255C80.2653 103.725 79.8598 104.169 79.5757 104.592C79.3303 104.948 79.105 105.319 78.9009 105.701C78.7379 106.012 78.5285 106.347 78.6485 106.702C78.6825 106.803 78.8359 106.741 78.802 106.64C78.7107 106.37 78.9318 105.999 79.0524 105.767C79.1583 105.564 79.2743 105.366 79.3951 105.171C79.6203 104.808 79.8669 104.458 80.1072 104.105C80.3329 103.83 80.522 103.527 80.6697 103.204C80.6994 103.113 80.7095 103.018 80.6993 102.924C80.6339 102.631 80.6357 102.326 80.7045 102.034C81.148 101.861 81.728 101.983 82.1835 101.982C82.6961 101.997 83.2081 101.936 83.7028 101.801C84.0542 101.708 84.3794 101.535 84.6524 101.295C84.9254 101.055 85.1387 100.755 85.2755 100.418C85.2861 100.413 85.2955 100.405 85.3029 100.396C85.3104 100.387 85.3157 100.377 85.3184 100.365C85.3212 100.354 85.3214 100.342 85.3189 100.33C85.3165 100.319 85.3115 100.308 85.3043 100.299Z" fill="#D9876C"/>
<path d="M87.5479 105.022C86.3804 106.116 85.0775 107.055 83.671 107.817C83.5784 107.867 83.6392 108.021 83.7332 107.971C85.153 107.204 86.4686 106.257 87.6476 105.155C87.7247 105.082 87.6261 104.949 87.5479 105.022Z" fill="#D9876C"/>
<path d="M27.2195 115.93C28.2681 116.359 28.6317 117.859 29.7181 118.178C30.7925 118.493 38.6098 115.704 39.6166 114.986C41.339 113.756 43.0614 112.526 44.8401 111.379C44.7928 111.226 44.7437 111.074 44.6929 110.923C44.5571 110.518 44.367 110.111 43.9373 109.955C43.3876 109.755 42.6796 109.958 42.1266 110.032C41.4024 110.128 40.6775 110.22 39.952 110.308C37.0057 110.705 34.0321 110.86 31.0605 110.774C29.594 110.71 28.1315 110.459 26.6633 110.485C26.1328 110.494 25.4873 110.489 25.037 110.814C24.6345 111.104 24.4881 111.618 24.3211 112.062C23.8605 113.285 23.4247 114.517 23.0137 115.759C24.3884 116.213 25.8762 115.38 27.2195 115.93Z" fill="#FFF4EB"/>
<path d="M73.9714 104.691C74.4982 103.299 74.5621 102.615 75.0262 101.427C75.0515 101.364 75.0623 101.296 75.0581 101.228C75.0539 101.16 75.0346 101.094 75.0018 101.034C74.9689 100.974 74.9231 100.923 74.8679 100.883C74.8127 100.843 74.7493 100.816 74.6824 100.804C70.7753 100.102 57.9776 99.6618 55.0466 97.8405C55.0139 97.8201 54.9766 97.8079 54.938 97.8053C54.8995 97.8026 54.8609 97.8094 54.8256 97.8251C54.7902 97.8408 54.7593 97.865 54.7355 97.8954C54.7117 97.9259 54.6957 97.9617 54.689 97.9998C52.579 98.4182 50.8178 100.114 49.3479 101.583C47.8968 103.033 46.666 104.693 45.9691 106.625C45.7111 106.418 45.4563 106.856 45.7106 107.049C45.7412 107.072 45.7738 107.092 45.8048 107.115C45.8002 107.131 45.7945 107.146 45.7899 107.161C45.7769 107.215 45.7822 107.272 45.8052 107.323C45.8281 107.374 45.8672 107.415 45.9164 107.441C45.9655 107.467 46.0219 107.476 46.0766 107.466C46.1313 107.456 46.1812 107.429 46.2184 107.387C47.8327 108.354 47.2217 108.858 49.0367 109.079C51.484 109.378 56.6482 109.126 59.1099 109.041C63.2999 108.895 67.5834 109.046 71.8677 108.72C72.0626 108.704 72.2485 108.631 72.4023 108.51C72.5562 108.39 72.6714 108.226 72.7335 108.041C73.1194 106.917 73.5496 105.805 73.9714 104.691Z" fill="#3878B5"/>
<path d="M57.1877 95.3509C56.0107 91.3041 54.75 87.4227 54.4841 83.1831C54.2586 79.8783 53.5906 76.6188 52.498 73.4921C52.3079 72.9683 51.7861 73.4173 51.5895 72.9117C50.85 72.8006 50.1669 72.4509 49.6441 71.9157C49.0322 71.2665 48.7941 72.2269 48.1216 71.6414C48.0944 71.6169 48.0695 71.5957 48.0469 71.5759C47.8747 71.4555 47.7064 71.3296 47.5309 71.2138C47.168 70.9755 46.7908 70.7597 46.4014 70.5679C45.953 70.3354 45.5662 69.9995 45.2729 69.588C44.9797 69.1765 44.7883 68.7011 44.7145 68.201C44.1624 68.2641 43.7912 66.8614 43.4468 67.152C41.4408 68.8475 41.2559 71.7643 41.2537 74.1926C41.2521 75.8593 41.2825 77.5139 40.8531 79.1401C40.4819 80.5466 39.8876 81.8783 39.3969 83.2448C38.8917 84.516 38.6101 85.865 38.5645 87.2322C38.5645 88.661 38.9534 90.0509 39.4335 91.3851C40.0109 92.9889 40.6793 94.5531 41.1926 96.1806C41.7286 97.8908 42.1586 99.6325 42.4802 101.396C42.4299 101.431 42.3936 101.482 42.378 101.542C42.3623 101.601 42.3683 101.664 42.3949 101.719C43.1801 103.385 44.0429 105.11 45.6198 106.162C47.3427 107.312 52.1313 109.883 55.8219 107.998C57.7282 107.024 58.433 104.061 58.7977 102.065C58.8202 101.945 58.8332 101.823 58.8365 101.701C58.8838 99.7487 57.729 97.2133 57.1877 95.3509Z" fill="#3878B5"/>
<path d="M14.5741 88.9895C15.5219 90.2433 16.5238 91.4505 17.5637 92.6237C17.744 92.8267 17.865 93.0753 17.9135 93.3425C18.5702 96.9656 19.0325 102.164 20.2867 105.497C20.9613 107.289 21.7894 110.147 22.6587 112.16L24.0343 113.057C25.7181 113.042 26.622 118.57 28.4088 118.439C31.8022 118.191 36.0178 118.541 39.4118 118.2C41.0324 118.037 44.207 118.316 45.7958 117.961C46.4796 117.808 46.0106 113.013 46.7126 112.826C46.7262 112.781 46.7398 112.735 46.7498 112.688C47.5158 109.595 47.7682 106.397 47.497 103.221C47.3156 100.921 48.7436 96.7546 49.0529 94.4682C49.7167 89.5645 49.8296 82.8946 49.8935 77.8751C49.9206 75.7192 49.998 74.4992 49.696 71.9055C49.4293 69.6139 49.3177 72.033 47.7979 70.5776C47.1279 69.9364 46.1171 69.0404 45.2303 68.8378C44.0391 68.566 36.266 63.3614 33.5094 63.1483C31.0192 62.9558 28.0234 62.4673 25.7105 63.4932C22.6921 64.8326 19.6232 66.0947 16.7943 67.8155C14.5513 69.1795 10.6361 72.4041 9.60948 74.8746C8.53453 77.4608 9.94028 79.629 10.4593 82.358C10.9891 85.1433 12.8943 86.7681 14.5741 88.9895Z" fill="#8ABFE5"/>
<path d="M37.2296 65.6138C36.2519 65.2876 35.2147 64.6654 34.8575 63.7245C34.9926 62.8343 35.1489 61.9475 35.3266 61.064C35.7348 59.0414 36.2468 57.0412 36.8605 55.0714C36.8884 55.0636 36.9144 55.0497 36.9364 55.0308C36.9584 55.0119 36.976 54.9883 36.9879 54.9618C36.9997 54.9354 37.0057 54.9066 37.0052 54.8775C37.0047 54.8485 36.9979 54.8199 36.9851 54.7938C36.0278 52.4552 34.5835 50.3476 32.7484 48.6117C30.8141 46.7852 28.5526 45.3577 26.3118 43.9455C26.269 43.9156 26.2168 43.902 26.1648 43.9074C26.1128 43.9128 26.0645 43.9368 26.0288 43.9749C25.984 43.9804 25.9423 44.0007 25.9103 44.0326C25.8783 44.0645 25.8579 44.1062 25.8522 44.1511C25.0983 48.1055 26.9486 51.3754 28.8481 54.7723C28.4052 57.1593 27.2936 61.2108 25.6844 63.1762C24.0581 65.1623 22.3053 65.2966 20.3613 66.9276C20.3257 66.9537 20.2997 66.9909 20.2873 67.0333C20.275 67.0757 20.2769 67.121 20.2929 67.1622C20.2832 67.1964 20.2822 67.2324 20.2898 67.2671C20.2975 67.3017 20.3136 67.334 20.3367 67.3609C20.3598 67.3878 20.3893 67.4086 20.4224 67.4214C20.4555 67.4341 20.4912 67.4385 20.5264 67.434C22.2293 67.263 23.9316 67.7978 25.6005 68.0758C27.1478 68.3586 28.7106 68.5492 30.2805 68.6467C32.9249 68.7685 35.6927 68.1827 37.379 65.9797C37.4816 65.8435 37.3646 65.6587 37.2296 65.6138Z" fill="#FFBC9E"/>
<path d="M32.7357 50.2992C32.5366 50.6722 32.7205 51.4048 32.755 51.818C32.8055 52.4239 32.7906 53.0344 32.871 53.6371C33.2128 55.7496 34.2146 57.6994 35.7324 59.2065C36.0599 57.8156 36.4359 56.4371 36.8603 55.0711C36.8883 55.0633 36.9142 55.0494 36.9362 55.0305C36.9582 55.0116 36.9758 54.988 36.9877 54.9615C36.9996 54.9351 37.0055 54.9063 37.005 54.8772C37.0046 54.8482 36.9977 54.8196 36.985 54.7935C36.3281 53.194 35.4437 51.6979 34.3593 50.3517C33.7178 50.0564 32.9807 49.8406 32.7357 50.2992Z" fill="#D9876C"/>
<path d="M46.6079 49.5252C46.5368 48.6754 46.1345 47.799 45.8184 47.0172C45.5835 46.4324 44.9165 45.3886 44.6351 44.8253C44.4746 42.6435 44.6796 40.5197 43.4765 38.6744C39.9114 33.2105 31.4058 33.8901 27.6883 38.8234C25.7123 41.4442 25.5121 44.5554 25.7769 47.718C25.788 48.1317 25.8749 48.5399 26.0333 48.9222C26.6308 50.143 28.7576 50.0272 29.8417 50.544C31.1997 51.1902 31.7352 52.2952 32.3922 53.6038C32.5975 54.0116 33.195 55.8139 33.5557 55.9628C33.2876 55.8519 37.4733 58.1376 40.0803 58.0832C41.0417 58.065 42.0596 57.9225 42.6753 57.0809C43.2497 56.2988 43.5029 55.178 43.7329 54.2016C43.766 54.0592 43.7991 53.92 43.8323 53.786C43.93 53.3914 44.0183 52.9944 44.0971 52.5948C44.1997 52.0861 44.2891 51.5758 44.3651 51.064C45.3334 50.6965 46.7171 50.8123 46.6079 49.5252Z" fill="#FFBC9E"/>
<path d="M45.2488 50.0351L43.9506 50.2175C43.8455 50.2325 43.8903 50.392 43.9946 50.3774L45.2928 50.195C45.3976 50.18 45.353 50.0205 45.2488 50.0351Z" fill="#D9876C"/>
<path d="M47.339 37.89C47.1469 37.2374 46.8351 36.6262 46.4197 36.0877C45.7833 35.3701 45.2874 35.659 44.4713 35.4543C43.744 35.2717 43.6517 34.4654 43.2894 33.9418C42.388 32.6392 40.2069 32.3701 38.7539 32.3896C37.5982 32.4036 36.4573 32.6513 35.3998 33.1179C34.3764 33.5727 33.49 34.463 32.2781 34.1202C31.8337 33.9561 31.3985 33.7679 30.9745 33.5566C30.6029 33.4062 30.2118 33.3093 29.8129 33.2688C28.3287 33.116 25.5794 33.9889 26.0433 35.9771C26.247 36.8494 26.467 37.2901 25.4431 38.1907C25.0577 38.5286 24.6223 38.8044 24.1522 39.0084C23.2212 39.4142 22.3516 39.6643 21.9641 40.7791C21.5151 42.0712 22.2386 43.3793 23.2481 44.1681C23.5151 44.739 23.6827 45.3553 23.4502 45.8954C22.7145 47.5988 23.7813 49.4021 25.1612 49.5704C25.6913 49.6354 25.3592 50.6306 25.6169 51.1047C25.9181 51.6584 26.4184 52.0469 26.8228 52.5182C27.6997 53.5392 28.1478 54.84 28.5802 56.0932C28.585 56.1085 28.5941 56.1222 28.6063 56.1325C28.6186 56.1429 28.6337 56.1494 28.6496 56.1515C28.6655 56.1536 28.6817 56.151 28.6962 56.1441C28.7107 56.1373 28.723 56.1264 28.7315 56.1127C29.8487 54.5165 30.7611 52.7861 31.4474 50.9622C31.9327 49.7321 31.7787 47.7817 32.9859 47.0828C33.4658 46.8047 34.9587 47.0684 35.1703 47.1548C35.1581 47.0366 34.3577 47.0148 35.0263 46.4644C35.3981 46.1583 37.2191 46.4271 37.8163 46.2404C38.5225 46.0194 38.8579 45.308 38.8959 44.6115C38.8994 44.1271 38.8483 43.6438 38.7435 43.1708C38.646 42.6073 38.5484 42.0436 38.4508 41.4797C38.9012 41.3855 39.3207 41.1792 39.6705 40.8799C40.0203 40.5805 40.2891 40.1978 40.4521 39.7671C40.6379 39.2774 40.6978 38.7487 40.6262 38.2298C40.6179 38.1654 40.6305 38.0999 40.6621 38.0432C40.6938 37.9865 40.7428 37.9414 40.802 37.9147C40.8612 37.888 40.9274 37.881 40.9909 37.8948C41.0543 37.9086 41.1117 37.9425 41.1544 37.9914L41.1618 37.9998C41.4716 38.3532 41.722 38.7539 42.002 39.1312C42.3508 39.6007 42.5783 39.6162 43.1223 39.7837C43.9447 40.0346 44.0634 40.9102 44.471 41.5446C45.0655 42.4689 46.0886 42.2356 46.826 41.5626C48.5728 39.9677 47.8192 39.2204 47.339 37.89Z" fill="#231F20"/>
<path d="M35.4167 49.1162C35.433 48.9977 35.4439 48.8816 35.4512 48.7737C35.5327 47.5485 35.4007 46.5414 34.7014 45.6109C33.9138 44.5618 32.2411 44.0375 31.8856 45.8137C31.7115 46.6835 32.0404 47.6641 32.4491 48.4046C32.8788 49.1812 33.5096 49.8275 34.2753 50.2756C35.0281 50.6622 35.3176 49.8423 35.4167 49.1162Z" fill="#FFBC9E"/>
<path d="M34.9483 47.8998C34.6942 47.6787 34.4869 47.4089 34.3386 47.1063C34.2028 46.8217 34.1822 46.4871 34.0257 46.2136C33.796 45.8113 33.3402 45.6533 32.9122 45.5663C32.8082 45.5454 32.7637 45.705 32.8682 45.7262C33.1309 45.7653 33.3827 45.8578 33.6083 45.998C33.9323 46.2242 33.9695 46.5857 34.0901 46.931C34.2408 47.35 34.4963 47.7234 34.8321 48.0156C34.9106 48.0877 35.0279 47.971 34.9483 47.8998Z" fill="#D9876C"/>
<path d="M33.4165 49.2408C33.0227 48.9433 32.7131 48.5484 32.5178 48.095C32.4752 47.9976 32.3326 48.0819 32.375 48.1787C32.5843 48.6569 32.9144 49.0723 33.3328 49.384C33.4181 49.4493 33.5007 49.3055 33.4165 49.2408Z" fill="#D9876C"/>
<path d="M33.6073 46.5374C33.5243 46.5079 33.4357 46.4977 33.3481 46.5075C33.2606 46.5173 33.1764 46.5469 33.102 46.594C33.0276 46.6412 32.9648 46.7046 32.9184 46.7795C32.8721 46.8545 32.8433 46.939 32.8344 47.0267C32.8251 47.133 32.9905 47.1322 32.9998 47.0267C33.0086 46.9645 33.0314 46.9051 33.0664 46.853C33.1014 46.8009 33.1478 46.7573 33.202 46.7256C33.2562 46.694 33.3168 46.6749 33.3794 46.67C33.442 46.6651 33.5048 46.6744 33.5633 46.6973C33.6619 46.7372 33.7048 46.5768 33.6073 46.5374Z" fill="#D9876C"/>
<path d="M38.5564 65.7963C38.4274 65.507 38.239 65.2481 38.0035 65.0365C37.7679 64.8249 37.4905 64.6653 37.1892 64.5682C36.8788 64.4524 36.2509 64.2194 35.8883 64.3912C35.8589 64.3894 35.8295 64.3961 35.8038 64.4106C35.7781 64.4251 35.7571 64.4466 35.7433 64.4728C35.7341 64.4945 35.7237 64.5152 35.714 64.5366C35.6974 64.5603 35.4761 64.597 35.472 64.6157C35.472 69.9008 25.684 68.661 23.6158 64.5668C23.5194 64.3765 23.5661 64.3453 23.4464 64.5206C23.3896 64.6035 20.183 66.1815 19.3163 67.4719C19.2951 67.5101 19.2894 67.555 19.3005 67.5973C19.3115 67.6396 19.3386 67.6759 19.3758 67.6987C21.1645 68.9681 22.9485 70.1346 25.1215 70.6C27.2861 71.0637 29.4536 71.353 31.6603 71.017C33.368 70.7568 35.7629 70.2205 36.8829 68.7504C36.9595 68.6506 39.0341 67.034 38.5564 65.7963Z" fill="#8ABFE5"/>
<path d="M11.4246 118.078C11.5113 118.043 11.9369 118.474 12.0221 118.437C12.4838 117.217 16.3151 106.276 17.3213 103.884C17.8763 102.593 18.2043 101.216 18.2906 99.8135C18.3927 98.0316 18.2184 96.2149 18.7863 94.4918C19.3093 92.9048 20.2928 91.5287 21.0635 90.0608C21.7756 88.7127 22.2925 87.2701 22.5985 85.7763C23.2078 82.8816 22.9282 79.8701 21.7966 77.1373C20.6547 74.4414 18.6679 72.1902 16.1359 70.7235C16.1414 70.6674 16.1278 70.611 16.0971 70.5636C16.0665 70.5163 16.0207 70.4807 15.9672 70.4628C13.4436 69.5718 10.4198 72.0485 9.45291 73.8747C7.94669 76.7214 3.49511 100.361 3.08528 103.65C2.87616 105.329 0.94353 114.581 1.73711 118.318C5.01788 117.814 8.10964 118.173 11.4246 118.078Z" fill="#3878B5"/>
<path d="M14.4911 95.4645C15.4544 98.1598 16.5506 100.81 17.4897 103.513C18.0608 105.113 18.3175 106.809 18.2455 108.507C18.2165 109.195 17.761 115.895 17.6421 118.318C21.7061 118.336 25.2514 118.153 29.841 118.198C29.8828 114.052 29.7019 107.443 29.5919 104.537C29.4586 101.016 29.3448 97.4941 29.1845 93.9746C29.0066 90.0495 28.9719 86.1078 28.4431 82.2083C27.9561 78.6152 27.3377 70.227 25.0466 65.4163C24.4912 64.2496 24.4763 63.5618 23.1949 64.2343C20.5624 65.6153 18 67.1446 15.4077 68.6006C13.8746 69.4615 11.278 71.023 10.2348 72.4982C7.04963 77.0029 10.2277 82.6348 11.7163 87.2787C12.597 90.0222 13.5219 92.7509 14.4911 95.4645Z" fill="#3878B5"/>
<path d="M37.9377 65.1712C37.6612 64.7733 37.152 64.4397 36.7954 64.1132L35.5678 62.9903C35.4893 62.9761 35.4087 62.9778 35.3309 62.9953C35.253 63.0129 35.1794 63.0458 35.1145 63.0922C34.5853 64.8462 33.7323 66.4853 32.5996 67.9247C29.9533 66.8239 27.6178 65.089 25.7985 62.8728C25.6676 62.7144 24.8496 64.2348 24.4973 64.8078C24.3167 65.1016 24.0405 65.4254 24.0574 65.7929C24.0748 66.1781 24.3893 66.5707 24.5734 66.892C24.8536 67.379 25.1584 67.8513 25.4867 68.3072C26.6461 69.911 28.1089 71.24 29.9601 71.9811C29.988 71.9944 30.0197 71.9973 30.0496 71.9893C30.0795 71.9813 30.1055 71.9628 30.123 71.9373C30.1373 71.9515 30.1544 71.9627 30.1732 71.9701C30.1921 71.9774 30.2122 71.9809 30.2323 71.9802C30.2525 71.9795 30.2724 71.9746 30.2906 71.9659C30.3088 71.9572 30.3251 71.9449 30.3384 71.9297C31.3063 70.8967 31.8563 69.5769 32.7107 68.4605C33.5474 69.3202 34.3428 70.2167 35.0971 71.1501C35.0978 71.1784 35.1058 71.2062 35.1202 71.2307C35.1346 71.2551 35.155 71.2755 35.1795 71.2899C35.2039 71.3043 35.2317 71.3121 35.26 71.3128C35.2884 71.3134 35.3165 71.3068 35.3416 71.2936C36.781 70.4884 37.4418 68.4665 37.8301 66.9627C37.9678 66.4424 38.2796 65.6619 37.9377 65.1712Z" fill="#FFF4EB"/>
<path d="M44.4021 102.558C44.5542 105.962 44.7131 113.353 45.0338 118.183C45.9301 118.121 46.7818 118.297 47.678 118.243C48.0115 118.223 48.4656 118.259 48.7994 118.243C48.993 116.041 48.9816 112.819 48.9917 112.322C49.0392 109.922 50.4789 94.9878 50.3844 90.2564C50.3371 87.8863 49.8309 85.5237 50.2638 83.1614C50.6285 81.1716 53.0571 75.1022 52.4979 73.4921C51.3805 70.2752 38.7458 64.3312 35.5177 63.3865C35.5021 63.3829 35.4859 63.3829 35.4703 63.3863C35.4546 63.3897 35.4399 63.3966 35.4273 63.4064C35.3053 63.3368 35.0389 63.642 35.1426 63.7869C44.6229 77.1456 44.2427 98.9903 44.4021 102.558Z" fill="#3878B5"/>
<path d="M28.0616 76.0811C27.7176 73.887 27.3021 71.7058 26.815 69.5376C26.5616 68.4106 26.2808 67.2912 26.0003 66.1712C25.698 64.9675 25.5522 64.0761 25.928 62.8599C25.9647 62.7408 25.6592 62.3994 25.5492 62.4481C22.4058 63.8737 19.4707 65.7205 16.8244 67.9376C16.7196 68.024 16.7927 68.1754 16.8975 68.2143C18.5842 68.8434 20.2895 69.4163 22.0134 69.9332C20.6848 70.247 19.37 70.6148 18.0691 71.0366C18.0415 71.0447 18.0166 71.0598 17.9965 71.0805C17.9765 71.1011 17.9622 71.1265 17.9548 71.1543C17.9475 71.1822 17.9474 71.2114 17.9546 71.2392C17.9619 71.2671 17.9761 71.2926 17.9961 71.3133C22.9498 76.4062 28.9277 89.38 28.9432 89.3968C29.5687 87.9879 28.7512 80.4851 28.0616 76.0811Z" fill="#284180"/>
<path d="M44.2021 76.1298C44.1851 75.1501 44.1503 74.1708 44.0978 73.192C44.0603 72.4969 44.0609 70.5775 43.8447 69.9028C43.8447 69.9028 41.4745 69.3387 40.1511 68.8565C40.6863 67.7886 41.2848 66.7538 41.9436 65.7575C41.9548 65.7423 41.9628 65.7251 41.9673 65.7068C41.9719 65.6884 41.9727 65.6694 41.9698 65.6507C41.9669 65.6321 41.9604 65.6142 41.9506 65.5981C41.9408 65.582 41.9278 65.568 41.9126 65.5569C41.9017 65.5192 41.8767 65.4872 41.8428 65.4675C40.7972 64.8387 36.4024 62.5175 35.1197 62.4443C35.1197 62.4443 34.806 63.5045 34.8752 63.6149C39.5829 71.1416 42.1296 79.1271 43.2333 87.8901C43.2062 88.0975 43.6844 88.8899 43.66 88.6784C43.629 88.4134 44.2716 80.0587 44.2021 76.1298Z" fill="#284180"/>
<path d="M20.2847 92.2677C19.5556 95.7366 18.6671 99.1662 17.6193 102.557C17.5878 102.659 17.7475 102.702 17.7787 102.601C18.8254 99.2138 19.714 95.7842 20.4444 92.3117C20.4672 92.2076 20.3067 92.163 20.2847 92.2677Z" fill="#284180"/>
<path d="M51.9686 83.7861C50.4781 89.1937 49.5488 94.7409 49.1954 100.339C49.0951 101.936 49.0424 103.534 49.0371 105.134C49.0371 105.156 49.0458 105.177 49.0613 105.192C49.0768 105.208 49.0979 105.217 49.1198 105.217C49.1417 105.217 49.1628 105.208 49.1783 105.192C49.1938 105.177 49.2025 105.156 49.2025 105.134C49.2246 99.5123 49.8286 93.9083 51.005 88.4114C51.3347 86.8735 51.7092 85.3464 52.1283 83.8301C52.1337 83.8091 52.1306 83.7867 52.1197 83.7679C52.1088 83.7491 52.091 83.7353 52.0701 83.7295C52.0491 83.7238 52.0268 83.7265 52.0078 83.737C51.9888 83.7476 51.9747 83.7652 51.9686 83.7861Z" fill="#284180"/>
<path d="M58.0885 100.333C55.9827 100.807 53.9898 101.688 52.2223 102.928C52.1356 102.988 52.2182 103.132 52.3059 103.071C54.0614 101.839 56.0411 100.963 58.1331 100.493C58.2363 100.47 58.1909 100.31 58.0885 100.333Z" fill="#284180"/>
<path d="M20.9769 90.1169C20.997 90.2213 21.1567 90.1772 21.1366 90.0729C20.5555 87.0547 19.8121 84.0701 18.9096 81.1321C18.8784 81.0304 18.7195 81.0739 18.7499 81.1761" fill="#284180"/>
<path d="M153.423 64.8311C152.992 61.6987 151.193 59.0602 150.431 56.0395C149.57 52.6274 151.705 49.9025 152.984 46.937C153.504 45.7328 153.918 44.4301 153.868 43.1041C153.819 41.778 153.265 40.5907 152.501 39.5218C150.864 37.2294 148.502 35.4477 145.717 34.8698C145.687 34.8638 145.657 34.8661 145.628 34.8766C142.061 34.0323 138.467 35.0351 135.23 36.5821C133.552 37.3509 131.936 38.2508 130.399 39.2733C129.191 40.109 128.108 41.1566 127.562 42.5479C127.291 43.188 127.18 43.8842 127.237 44.5768C127.295 45.2694 127.519 45.9377 127.891 46.5246C128.309 47.1947 128.887 47.8349 129.094 48.6145C129.403 49.7794 128.72 50.7892 128.073 51.6893C126.002 54.5634 124.074 57.6752 123.946 61.3265C123.859 63.2621 124.414 65.1721 125.524 66.7595C127.241 69.1297 130.646 70.0267 133.427 70.2793C135.552 70.4723 137.688 70.2999 139.807 70.1181C141.918 69.937 144.014 69.7081 146.118 70.08C147.868 70.3891 149.574 70.9053 151.343 71.0858C151.319 71.1188 151.308 71.1596 151.313 71.2002C151.317 71.2408 151.336 71.2783 151.367 71.3054C151.397 71.3325 151.437 71.3473 151.478 71.3469C151.518 71.3465 151.558 71.331 151.587 71.3033C151.646 71.2443 151.7 71.1823 151.755 71.1214C151.789 71.1239 151.823 71.1271 151.857 71.1293C151.889 71.1298 151.919 71.1212 151.945 71.1046C151.972 71.088 151.993 71.064 152.006 71.0357C152.019 71.0074 152.023 70.976 152.018 70.9452C152.014 70.9144 152 70.8856 151.98 70.8624C153.339 69.1946 153.715 66.9454 153.423 64.8311Z" fill="#231F20"/>
<path d="M151.879 44.5346C149.555 43.5782 146.819 44.5147 144.768 45.7184C142.693 46.9335 141 48.7056 139.879 50.8342C139.341 51.8707 138.843 53.0632 138.766 54.2343C138.734 54.7155 138.814 55.1976 138.999 55.6427C139.395 56.5047 139.577 57.4492 139.532 58.3967C139.366 61.4731 139.076 64.7373 137.29 67.3715C137.169 67.5498 137.463 67.7159 137.583 67.5386C137.623 67.4797 137.659 67.4193 137.698 67.3598C139.483 67.3106 141.266 67.2239 143.05 67.1766C143.961 67.1524 144.872 67.1363 145.783 67.1428C146.837 67.1505 147.603 67.6213 147.408 66.1506C146.865 62.0827 147.139 57.9473 148.213 53.9867C148.711 52.1857 149.167 50.4799 150.321 48.962C151.318 47.6504 151.945 45.7828 152.104 44.1404C152.118 43.9922 151.985 44.4756 151.879 44.5346Z" fill="#FFBC9E"/>
<path d="M139.532 58.3975C139.518 58.6679 139.501 58.9397 139.484 59.213C140.645 58.1257 141.742 56.981 142.506 55.6193C143.226 54.3349 143.43 52.824 143.076 51.3944C142.798 50.1127 142.531 48.8353 142.364 47.5381C141.361 48.4935 140.521 49.6073 139.878 50.8349C139.339 51.8715 138.842 53.064 138.765 54.2351C138.733 54.7163 138.813 55.1984 138.998 55.6435C139.394 56.5054 139.577 57.4499 139.532 58.3975Z" fill="#D9876C"/>
<path d="M154.732 104.571C154.759 104.766 154.784 104.962 154.808 105.157C154.791 104.972 154.768 104.788 154.739 104.606C154.737 104.594 154.735 104.583 154.732 104.571Z" fill="#C26161"/>
<path d="M150.637 38.8569C150.029 37.9393 149.281 37.1229 148.419 36.4376C147.424 35.6401 146.225 35.1395 144.959 34.993C142.641 34.7446 140.076 35.369 137.996 36.3794C135.831 37.4038 134.093 39.1542 133.084 41.3269C132.706 42.1535 132.405 43.815 132.219 45.7682C131.847 46.2885 131.486 46.8169 131.147 47.3603C130.755 47.9856 130.056 48.8348 129.921 49.5736C129.76 50.4498 130.981 50.6819 132.026 50.7382C132.036 51.3593 132.059 51.9674 132.098 52.5473C132.128 53.0078 132.168 53.4517 132.219 53.8692C132.423 55.5756 132.795 56.8676 133.375 57.2438C134.604 58.0422 135.928 57.1781 137.263 56.8847C139.674 56.3563 142.594 55.4551 143.29 52.9083C143.364 52.6364 143.513 51.4132 143.845 51.3148C147.44 50.2429 151.476 48.7171 152.064 44.5109C152.306 42.5144 151.797 40.4992 150.637 38.8569Z" fill="#FFBC9E"/>
<path d="M122.428 79.3128C123.576 81.1052 124.439 83.0653 124.986 85.1228C124.758 86.9667 124.46 88.7981 124.171 90.6447C123.954 92.0289 124.992 101.848 125.157 103.243C125.295 104.412 124.133 114.975 123.958 118.079C128.473 118.175 132.964 118.19 137.483 118.199C143.335 118.21 148.136 118.329 153.987 118.199C154.307 118.178 155.961 118.218 156.26 118.199C156.676 115.965 154.862 103.086 155.373 99.4006C155.772 96.5251 159.95 87.9241 160.775 85.0347C161.535 82.3707 162.254 79.6251 163.038 76.9668C163.238 76.3672 163.392 75.7529 163.496 75.1295C163.561 74.5925 163.547 74.049 163.455 73.5161C163.232 72.0454 162.917 70.1347 161.81 68.9821C161.013 68.1527 160.136 67.7458 159.145 67.1947C157 66.0016 154.729 64.8243 152.399 64.0303C150.451 63.3664 148.467 62.6727 147.026 61.133C146.898 60.9971 142.851 60.5456 141.109 60.7252C139.89 60.8508 138.849 61.4144 137.861 62.082C134.45 62.5751 131.091 63.375 127.824 64.472C126.154 65.0527 124.849 65.804 123.961 67.369C122.616 69.7392 120.121 75.9781 120.115 76.4712C120.101 77.5222 121.858 78.425 122.428 79.3128Z" fill="#F08D48"/>
<path d="M137.871 72.4022C139.44 73.7973 141.975 74.0425 143.964 74.1246C145.426 74.185 146.893 74.1817 148.349 74.3527C149.738 74.5158 151.062 74.9129 152.431 75.1701C153.669 75.4025 155.109 75.4789 156.17 74.6721C156.928 74.0944 157.398 73.1473 157.763 72.2913C158.425 70.6557 158.892 68.947 159.152 67.2012L159.143 67.196C156.997 66.0029 154.727 64.8256 152.396 64.0315C150.857 63.5069 149.296 62.9618 147.997 61.9971C144.473 65.2589 140.496 68.3467 137.871 72.4022Z" fill="#E61E27"/>
<path d="M143.006 50.2508C142.759 49.8494 142.396 49.533 141.965 49.3439C141.534 49.1548 141.055 49.102 140.593 49.1925C140.581 49.1796 140.565 49.1709 140.547 49.1674C140.53 49.1639 140.512 49.1658 140.495 49.1729C140.428 49.202 140.361 49.2336 140.295 49.2662C140.277 49.2719 140.258 49.276 140.241 49.2822C140.223 49.2883 140.209 49.2999 140.199 49.3154C139.4 49.7351 138.715 50.4299 138.686 51.3865C138.657 52.3869 139.521 53.1861 140.406 53.4927C140.839 53.6356 141.305 53.6431 141.743 53.5142C142.18 53.3854 142.567 53.1264 142.854 52.7716C143.125 52.4135 143.284 51.9829 143.312 51.5343C143.339 51.0856 143.232 50.639 143.006 50.2508ZM141.8 53.3226C140.768 53.6966 139.5 53.1119 139.016 52.1395C138.438 50.9782 139.372 49.9276 140.358 49.4198C140.882 49.2479 141.452 49.2846 141.949 49.5222C142.447 49.7599 142.834 50.1803 143.029 50.6961C143.214 51.2077 143.188 51.7715 142.957 52.264C142.727 52.7565 142.311 53.1374 141.8 53.3234V53.3226Z" fill="white"/>
<path d="M154.925 56.2293C153.992 54.1043 153.196 51.8323 153.526 49.4776C153.852 47.1596 154.245 44.5595 153.764 42.2385C152.988 38.5019 150.179 36.2559 146.554 35.0818C144.302 34.3522 141.939 34.9283 139.629 35.2691C137.575 35.572 135.549 36.1613 133.991 37.5958C133.834 37.7404 134.069 37.9742 134.226 37.8299C134.224 37.841 134.218 37.8541 134.217 37.8706C134.104 39.3883 135.048 40.6162 136.247 41.4404C136.989 41.9099 137.758 42.3373 138.548 42.7208C138.959 42.9318 139.356 43.1689 139.736 43.4306C140.452 43.94 140.848 44.5723 140.61 45.4862C139.661 49.1326 139.358 53.5642 141.807 56.7061C142.476 57.5648 143.264 58.3863 143.294 59.5446C143.345 61.581 141.737 63.2563 140.317 64.5051C138.985 65.6545 137.82 66.9831 136.853 68.4531C136.353 69.2308 134.503 72.0837 135.644 72.8568C137.943 74.4115 141.016 72.0794 143.786 72.053C145.801 72.0343 147.828 72.0685 149.814 72.4409C150.841 72.6334 155.409 72.8332 156.188 71.6974C157.087 70.3891 156.451 68.8771 155.974 67.547C155.325 65.7358 155.769 63.8228 155.915 61.9678C156.064 60.0025 155.724 58.0309 154.925 56.2293Z" fill="#231F20"/>
<path d="M163.398 73.1648C163.27 72.733 163.059 72.3301 162.778 71.9785C162.521 71.6355 162.244 71.3078 161.95 70.9969C161.594 70.6315 161.138 70.0455 160.675 70.6826C160.295 71.2057 160.127 71.9627 159.904 72.5627C159.559 73.4927 159.235 74.4303 158.932 75.3754C157.832 78.8665 156.942 82.4208 156.268 86.019C155.921 87.8177 155.612 89.6238 155.329 91.4335C155.054 93.1904 154.775 94.9706 154.883 96.7544C155.092 100.174 157.107 103.094 157.875 106.38C158.69 109.865 159.76 117.983 160.144 118.106C160.429 118.197 168.603 118.318 168.576 117.959C167.674 105.911 163.865 76.033 163.398 73.1648Z" fill="#F08D48"/>
<path d="M131.224 81.002C130.814 79.4581 130.319 77.9382 129.741 76.4496C128.502 73.3234 126.755 70.3949 124.133 68.2417C124.08 68.1969 124.015 68.1693 123.946 68.1627C123.877 68.1561 123.808 68.1707 123.747 68.2047C120.488 73.7804 113.434 92.5152 109.654 104.906C109.604 105.069 110.693 108.628 112.661 108.902C114.209 109.117 117.129 109.876 119.589 107.398C122.593 104.37 124.348 101.138 126.536 97.805C127.615 96.1611 128.634 91.7794 129.714 90.1358C130.602 88.7826 131.774 87.3696 132.011 85.7174C132.233 84.157 131.629 82.4898 131.224 81.002Z" fill="#F08D48"/>
<path d="M96.3414 99.8174C94.172 100.062 92.1538 100.314 92.1524 100.331C91.8809 103.243 90.7361 108.87 90.3613 109.823C90.3562 109.836 92.5039 109.701 94.7453 109.596C95.6372 106.394 96.3949 103.155 96.3414 99.8174Z" fill="#F08D48"/>
<path d="M118.104 101.734C118.077 101.682 118.046 101.632 118.016 101.582C117.27 100.359 116.614 99.2559 115.271 99.0382C112.174 98.5358 108.069 99.2926 104.981 99.4375C104.851 99.4435 104.708 99.4506 104.556 99.4584C104.52 100.252 104.207 100.992 103.923 101.76C103.508 102.88 103.335 104.088 103.024 105.242C102.616 106.754 102.44 108.33 102.062 109.846C108.442 109.744 115.502 109.448 117.823 108.707C118.751 108.411 119.589 106.282 119.589 105.394C119.589 104.105 118.744 102.897 118.104 101.734Z" fill="#F08D48"/>
<path d="M132.377 85.433C132.22 86.5399 132.051 87.6599 131.554 88.6736C131.072 89.6522 130.398 90.5313 129.835 91.4648C128.689 93.3677 127.731 95.3741 126.775 97.3762C126.729 97.4719 126.871 97.5559 126.917 97.4597C127.862 95.3936 128.911 93.3765 130.059 91.4162C130.636 90.4647 131.335 89.5701 131.794 88.5523C132.232 87.5813 132.388 86.5228 132.537 85.477C132.553 85.3729 132.392 85.3278 132.377 85.433Z" fill="#573439"/>
<path d="M117.673 101.621C117.064 100.89 116.313 100.292 115.464 99.864C114.616 99.436 113.688 99.1872 112.74 99.133C112.634 99.127 112.634 99.2925 112.74 99.2988C113.667 99.3531 114.572 99.5977 115.401 100.017C116.229 100.437 116.963 101.023 117.555 101.738C117.624 101.82 117.74 101.702 117.673 101.621Z" fill="#573439"/>
<path d="M158.883 84.4503C158.032 88.5105 156.84 92.4916 155.32 96.3514C155.282 96.4506 155.442 96.4938 155.48 96.3954C157 92.5356 158.192 88.5545 159.043 84.4943C159.065 84.3899 158.905 84.3459 158.883 84.4503Z" fill="#573439"/>
<path d="M157.728 101.559C157.668 101.473 157.524 101.555 157.585 101.643C159.744 104.713 162.059 107.671 164.519 110.505" fill="#573439"/>
<path d="M131.83 75.1225C131.791 75.0247 131.631 75.0681 131.67 75.1665C132.474 77.1869 132.903 79.3371 132.935 81.5115C132.935 81.5335 132.944 81.5545 132.959 81.5701C132.975 81.5856 132.996 81.5943 133.018 81.5943C133.04 81.5943 133.061 81.5856 133.076 81.5701C133.092 81.5545 133.1 81.5335 133.1 81.5115C133.069 79.3222 132.638 77.1571 131.83 75.1225Z" fill="#573439"/>
<path d="M106.249 87.247L97.0716 121.18C97.0099 121.363 96.8893 121.522 96.7285 121.63C96.5678 121.738 96.3758 121.79 96.1825 121.778L74.7922 121.681C74.4756 122.02 74.1468 122.353 73.8058 122.68C73.0147 123.441 72.1918 124.173 71.3906 124.927L97.4133 125.027C97.6377 125.042 97.8606 124.981 98.0472 124.856C98.2338 124.73 98.3738 124.546 98.4453 124.333L108.76 86.1934C107.899 86.4845 107.06 86.8366 106.249 87.247Z" fill="#F2E0D8"/>
<path d="M0.271484 118.288H53.2831" stroke="#3878B5" stroke-width="2" stroke-linecap="round" stroke-linejoin="round"/>
<path d="M55.7656 118.288H58.4266" stroke="#3878B5" stroke-width="2" stroke-linecap="round" stroke-linejoin="round"/>
<path d="M170.728 118.288H117.717" stroke="#F08D48" stroke-width="2" stroke-linecap="round" stroke-linejoin="round"/>
<path d="M116.311 118.288H113.65" stroke="#F08D48" stroke-width="2" stroke-linecap="round" stroke-linejoin="round"/>
</g>
<defs>
<clipPath id="clip0_508_1598">
<rect width="171" height="146" fill="white"/>
</clipPath>
</defs>
</svg>
