<svg width="152" height="146" viewBox="0 0 152 146" fill="none" xmlns="http://www.w3.org/2000/svg">
<path d="M21.1216 117.638C21.1234 118.166 21.3336 118.67 21.7065 119.043C22.0793 119.415 22.5844 119.625 23.1115 119.626H130.718C131.245 119.625 131.75 119.415 132.123 119.043C132.495 118.67 132.706 118.166 132.707 117.638L133.603 55.8003C133.603 54.707 132.315 52.5722 129.954 52.7326L24.7893 50.0115C24.1101 49.9936 23.4344 50.1139 22.8032 50.3651C22.1719 50.6163 21.5983 50.9931 21.1171 51.4727C20.636 51.9523 20.2573 52.5247 20.004 53.1551C19.7508 53.7855 19.6282 54.4608 19.6439 55.14L21.1216 117.638Z" fill="#284180"/>
<path d="M23.0867 115.731C23.0881 116.23 23.2869 116.708 23.6396 117.061C23.9923 117.414 24.4703 117.613 24.9691 117.614H128.122C128.621 117.613 129.099 117.414 129.452 117.061C129.805 116.708 130.003 116.23 130.005 115.731L130.85 59.5943C130.75 56.2159 127.788 55.0019 125.993 55.0736L25.2024 52.3694C24.725 52.3569 24.25 52.4416 23.8063 52.6183C23.3626 52.795 22.9594 53.0601 22.6213 53.3973C22.2832 53.7346 22.0171 54.1371 21.8393 54.5804C21.6615 55.0236 21.5756 55.4984 21.5869 55.9759L23.0867 115.731Z" fill="white"/>
<path d="M128.891 89.0626H128.887C128.851 89.0621 128.815 89.0544 128.782 89.0401C128.748 89.0257 128.718 89.0049 128.693 88.9789C128.668 88.9528 128.648 88.9221 128.635 88.8884C128.621 88.8546 128.615 88.8186 128.615 88.7823L128.682 84.2298C128.683 84.1574 128.713 84.0883 128.764 84.0375C128.816 83.9866 128.885 83.9581 128.958 83.958H128.962C128.998 83.9585 129.034 83.9662 129.067 83.9806C129.1 83.9949 129.131 84.0157 129.156 84.0417C129.181 84.0677 129.201 84.0984 129.214 84.1321C129.228 84.1658 129.234 84.2018 129.234 84.238L129.167 88.7908C129.166 88.8632 129.136 88.9324 129.085 88.9832C129.033 89.0341 128.963 89.0626 128.891 89.0626Z" fill="#91B3FA"/>
<path d="M129.056 77.9058H129.051C129.015 77.9053 128.979 77.8976 128.946 77.8833C128.913 77.8689 128.882 77.8482 128.857 77.8221C128.832 77.7961 128.812 77.7654 128.799 77.7317C128.785 77.6981 128.779 77.6621 128.779 77.6258L129.035 60.1893C129.03 59.1536 128.716 58.3264 128.101 57.7368C126.952 56.6364 125.128 56.6926 125.052 56.6962L92.8368 55.8323C92.8006 55.8313 92.7649 55.8233 92.7318 55.8086C92.6987 55.7938 92.6688 55.7727 92.6439 55.7464C92.619 55.7201 92.5995 55.6892 92.5865 55.6554C92.5736 55.6215 92.5675 55.5855 92.5685 55.5493C92.5678 55.5126 92.5748 55.4761 92.589 55.4423C92.6032 55.4084 92.6243 55.3779 92.651 55.3527C92.6776 55.3274 92.7092 55.308 92.7438 55.2957C92.7784 55.2833 92.8151 55.2783 92.8517 55.281L125.048 56.146C125.248 56.1343 127.19 56.1006 128.483 57.3396C129.21 58.0366 129.582 58.9978 129.587 60.1939L129.331 77.6362C129.33 77.7082 129.3 77.7768 129.249 77.8272C129.197 77.8776 129.128 77.9059 129.056 77.9058Z" fill="#91B3FA"/>
<path d="M13.2978 124.76L138.351 124.76C138.851 124.76 139.256 124.354 139.256 123.855V120.232C139.256 119.732 138.851 119.327 138.351 119.327L13.2978 119.327C12.7978 119.327 12.3925 119.732 12.3925 120.232V123.855C12.3925 124.354 12.7978 124.76 13.2978 124.76Z" fill="#284180"/>
<path d="M44.061 82.5797C43.3909 83.0147 52.4295 110.117 50.8537 129.191C50.8537 129.191 60.2049 132.119 69.3966 128.656C69.3966 128.656 81.3083 101.284 81.2458 98.2453C81.1746 94.8022 75.6668 78.0188 75.6668 78.0188C75.6668 78.0188 60.5923 71.8348 44.061 82.5797Z" fill="#8ABFE5"/>
<path d="M67.7344 90.6148C76.1111 89.4818 75.5609 82.2321 74.2773 77.5535C71.3099 76.6744 63.8784 75.0825 54.8457 77.6378C55.366 81.7279 57.6769 91.974 67.7344 90.6148Z" fill="url(#paint0_linear_508_1695)"/>
<path d="M65.5852 62.9971C65.5852 62.9971 62.9337 72.4427 61.1436 76.5393C60.889 77.1201 60.8585 77.7746 61.058 78.3766C61.2576 78.9785 61.673 79.4852 62.2242 79.7989C63.529 80.5361 65.5474 81.1429 68.4447 80.6802C69.0375 80.5826 69.5813 80.2917 69.9916 79.8527C70.4018 79.4138 70.6553 78.8515 70.7126 78.2535L71.7421 67.804L65.5852 62.9971Z" fill="url(#paint1_linear_508_1695)"/>
<path d="M75.666 78.0194C75.666 78.0194 91.6229 98.1964 110.568 76.542L113.748 80.0865C113.748 80.0865 101.874 107.695 79.0901 93.8078L75.666 78.0194Z" fill="url(#paint2_linear_508_1695)"/>
<path d="M128.009 77.1147C127.8 76.6933 127.499 76.3244 127.128 76.0352C126.757 75.746 126.325 75.5441 125.866 75.4443L116.778 73.4691C116.778 73.4691 116.464 72.4002 118.264 71.3313C120.063 70.2625 119.247 68.1826 119.247 68.1826C119.247 68.1826 116.82 69.8297 113.292 72.388C111.274 73.851 110.365 75.9828 109.955 77.5409L112.634 80.0487C118.145 80.7326 123.501 80.1318 128.745 78.5979L128.009 77.1147Z" fill="url(#paint3_linear_508_1695)"/>
<path d="M44.0615 82.5801C44.0615 82.5801 25.2212 96.7907 30.9342 116.587C36.6471 136.383 64.7887 112.534 64.7887 112.534L63.2042 107.806C63.2042 107.806 45.004 116.615 41.0031 112.379C38.0686 109.272 44.5136 99.7279 48.1579 94.8612C48.8101 93.9917 49.1742 92.94 49.1992 91.8533C49.2241 90.7667 48.9087 89.6994 48.2971 88.8008L44.0615 82.5801Z" fill="url(#paint4_linear_508_1695)"/>
<path d="M63.1346 119.853L66.6558 88.1258C66.675 87.95 66.746 87.7839 66.8596 87.6485C66.9732 87.513 67.1243 87.4142 67.294 87.3646C68.8324 86.9147 73.2933 85.6276 78.4693 84.2907C84.704 82.6806 91.9762 80.9984 96.4284 80.6209C96.5744 80.6076 96.7215 80.6304 96.8568 80.6872C96.992 80.744 97.1113 80.8331 97.2041 80.9467C97.2969 81.0603 97.3604 81.1949 97.3891 81.3388C97.4178 81.4826 97.4108 81.6313 97.3686 81.7718C95.7308 87.2464 88.9547 109.534 84.9565 117.138C84.8916 117.262 84.7987 117.37 84.6851 117.452C84.5714 117.534 84.4402 117.588 84.3019 117.61L64.1693 120.84C64.0325 120.862 63.8926 120.852 63.7603 120.811C63.628 120.77 63.5071 120.699 63.4068 120.603C63.3066 120.508 63.2299 120.39 63.1827 120.26C63.1355 120.13 63.119 119.991 63.1346 119.853Z" fill="#3878B5"/>
<path d="M78.9247 81.5143L85.028 79.4002C85.1024 79.3744 85.1822 79.3683 85.2597 79.3824C85.3372 79.3965 85.4097 79.4304 85.4702 79.4807C85.5308 79.5311 85.5773 79.5963 85.6053 79.6699C85.6332 79.7435 85.6417 79.8231 85.6299 79.901L85.3281 81.8906C85.3153 81.9755 85.2789 82.0551 85.2229 82.1203C85.1669 82.1854 85.0937 82.2335 85.0117 82.2589L79.1046 84.0935C79.0339 84.1154 78.959 84.1199 78.8862 84.1064C78.8134 84.093 78.7449 84.0621 78.6867 84.0164C78.6285 83.9707 78.5822 83.9115 78.5519 83.844C78.5216 83.7765 78.5081 83.7026 78.5126 83.6287L78.618 81.9183C78.6236 81.8282 78.6556 81.7418 78.7102 81.6699C78.7648 81.598 78.8394 81.5439 78.9247 81.5143Z" fill="#284180"/>
<path d="M75.1232 87.6315L75.1827 84.8484C75.1855 84.7126 75.2319 84.5813 75.3152 84.474C75.3984 84.3667 75.514 84.289 75.6449 84.2526L88.1125 80.8089C88.2098 80.782 88.3122 80.7789 88.4111 80.7997C88.5099 80.8206 88.6023 80.8648 88.6805 80.9287C88.7587 80.9926 88.8205 81.0743 88.8607 81.1669C88.9009 81.2596 88.9183 81.3605 88.9114 81.4613L88.6755 84.9569C88.6663 85.0931 88.6133 85.2227 88.5243 85.3262C88.4354 85.4297 88.3153 85.5017 88.1821 85.5313L75.8909 88.2625C75.7974 88.283 75.7005 88.2821 75.6075 88.2597C75.5144 88.2374 75.4277 88.1942 75.3538 88.1335C75.2798 88.0727 75.2207 87.996 75.1807 87.909C75.1408 87.8221 75.1211 87.7272 75.1232 87.6315Z" fill="#284180"/>
<path d="M63.9861 112.188C63.9861 112.188 61.9359 107.431 62.1235 105.588C62.311 103.744 62.8694 101.32 66.0988 101.289C69.3283 101.258 73.262 101.952 73.262 101.952C73.262 101.952 73.4643 104.277 70.9492 103.943L72.6257 104.838C72.6257 104.838 72.726 106.71 70.5409 106.072L72.1777 107.358C72.1777 107.358 71.5671 109.014 69.9179 108.299C68.2686 107.584 68.2988 112.07 63.9861 112.188Z" fill="url(#paint5_linear_508_1695)"/>
<path d="M78.5061 53.3927C78.5061 53.3927 81.1739 57.492 80.0667 64.6022C78.9595 71.7124 75.3802 72.9221 72.7681 71.6551C70.156 70.388 66.6303 67.9292 65.2189 61.8988C63.8075 55.8683 74.9159 48.2443 78.5061 53.3927Z" fill="url(#paint6_linear_508_1695)"/>
<path d="M69.6981 60.7302C69.6981 60.7302 72.2154 50.9339 79.2761 55.5696L80.146 57.8334C80.146 57.8334 85.6708 55.1925 82.8684 50.2557C80.0661 45.3188 72.5212 42.9293 66.8909 47.3946C61.2605 51.8598 59.8328 56.2356 60.9805 60.9683C62.1283 65.701 65.4387 63.4518 65.4387 63.4518C65.4387 63.4518 65.5308 59.8132 67.111 58.901C68.6912 57.9887 69.108 60.6603 69.108 60.6603L69.6981 60.7302Z" fill="#284180"/>
<path d="M68.3181 61.0793C68.3181 61.0793 69.6417 56.0502 66.6476 56.3862C63.6536 56.7222 65.6538 61.1853 66.5343 62.7886L68.3181 61.0793Z" fill="url(#paint7_linear_508_1695)"/>
<path d="M64.9078 51.2035C66.535 50.7191 66.8544 48.5528 65.5145 47.5101C61.1899 44.1447 53.5536 40.893 44.898 49.3455C35.1482 58.8667 29.758 63.3409 26.9211 63.0775C25.0576 62.904 23.8074 64.9306 24.9282 66.4292C25.757 67.5373 27.2388 68.5898 29.7773 69.3472C49.3526 75.1884 55.3649 54.0462 64.9078 51.2035Z" fill="#284180"/>
<path d="M113.763 27.999C122.336 29.204 131.56 34.7558 132.375 44.1141C133.067 52.0719 124.627 56.2109 119.391 58.15C117.93 58.691 116.719 59.7474 115.983 61.1201C114.221 64.4052 110.171 70.1109 104.022 68.1452C103.927 68.1135 103.844 68.0506 103.788 67.9667C103.733 67.8827 103.707 67.7825 103.714 67.682C103.722 67.5815 103.763 67.4865 103.831 67.4121C103.9 67.3378 103.991 67.2884 104.09 67.2718C105.566 67.0271 107.599 66.3859 108.728 64.7165C110.266 62.4442 108.895 59.3384 106.197 58.8415C101.091 57.9012 91.1244 54.5255 89.8263 42.4662C88.0702 26.1581 113.763 27.999 113.763 27.999Z" fill="#E61E27"/>
<path d="M111.543 41.7559C111.543 41.7559 110.043 36.4923 104.898 38.4794C100.024 40.3616 103.071 46.9336 111.092 49.8539C111.521 50.0098 111.981 50.0603 112.433 50.0014C112.886 49.9425 113.317 49.7759 113.692 49.5155C116.539 47.5414 123.024 42.2329 117.919 37.7835C114.623 34.9102 111.543 41.7559 111.543 41.7559Z" fill="white"/>
<path opacity="0.59" d="M127.95 38.1362C128.034 38.1186 128.113 38.0804 128.18 38.0249C128.246 37.9694 128.297 37.8984 128.329 37.8182C128.361 37.738 128.373 37.6511 128.363 37.5653C128.353 37.4795 128.323 37.3974 128.273 37.3264C123.863 30.9626 116.131 29.3256 110.421 29.0731C110.352 29.0692 110.283 29.0791 110.218 29.1021C110.153 29.1252 110.093 29.1609 110.041 29.2073C109.99 29.2538 109.948 29.3099 109.919 29.3725C109.889 29.4351 109.873 29.5029 109.87 29.572C109.867 29.6412 109.877 29.7102 109.901 29.7751C109.925 29.8401 109.961 29.8996 110.009 29.9504C110.056 30.0011 110.112 30.042 110.175 30.0707C110.238 30.0994 110.306 30.1153 110.375 30.1175C115.848 30.36 123.248 31.9116 127.414 37.922C127.472 38.0064 127.554 38.0717 127.65 38.1097C127.745 38.1478 127.849 38.157 127.95 38.1362Z" fill="white"/>
<path opacity="0.59" d="M130.595 45.0166C130.718 44.991 130.828 44.922 130.904 44.8222C130.98 44.7223 131.018 44.5983 131.01 44.4729C130.928 43.5949 130.75 42.7284 130.482 41.8883C130.442 41.7556 130.35 41.6444 130.228 41.5791C130.106 41.5139 129.962 41.4999 129.83 41.5402C129.697 41.5805 129.586 41.6719 129.521 41.7942C129.455 41.9166 129.441 42.0598 129.482 42.1925C129.725 42.9542 129.888 43.7396 129.967 44.5354C129.975 44.6739 130.038 44.8033 130.142 44.8953C130.245 44.9873 130.381 45.0344 130.52 45.0261C130.545 45.0247 130.57 45.0216 130.595 45.0166Z" fill="white"/>
<defs>
<linearGradient id="paint0_linear_508_1695" x1="35.7849" y1="244.823" x2="46.0343" y2="207.918" gradientUnits="userSpaceOnUse">
<stop stop-color="#FEBBBA"/>
<stop offset="1" stop-color="#FF928E"/>
</linearGradient>
<linearGradient id="paint1_linear_508_1695" x1="35.5897" y1="244.725" x2="64.3977" y2="225.076" gradientUnits="userSpaceOnUse">
<stop stop-color="#FEBBBA"/>
<stop offset="1" stop-color="#FF928E"/>
</linearGradient>
<linearGradient id="paint2_linear_508_1695" x1="94.9737" y1="218.37" x2="78.8541" y2="260.461" gradientUnits="userSpaceOnUse">
<stop stop-color="#FEBBBA"/>
<stop offset="1" stop-color="#FF928E"/>
</linearGradient>
<linearGradient id="paint3_linear_508_1695" x1="105.295" y1="231.172" x2="83.3666" y2="273.552" gradientUnits="userSpaceOnUse">
<stop stop-color="#FEBBBA"/>
<stop offset="1" stop-color="#FF928E"/>
</linearGradient>
<linearGradient id="paint4_linear_508_1695" x1="2.60755" y1="251.338" x2="36.8421" y2="251.338" gradientUnits="userSpaceOnUse">
<stop stop-color="#FEBBBA"/>
<stop offset="1" stop-color="#FF928E"/>
</linearGradient>
<linearGradient id="paint5_linear_508_1695" x1="57.0918" y1="119.72" x2="74.7478" y2="93.9398" gradientUnits="userSpaceOnUse">
<stop stop-color="#FEBBBA"/>
<stop offset="1" stop-color="#FF928E"/>
</linearGradient>
<linearGradient id="paint6_linear_508_1695" x1="-516.603" y1="-962.616" x2="-492.553" y2="-953.49" gradientUnits="userSpaceOnUse">
<stop stop-color="#FEBBBA"/>
<stop offset="1" stop-color="#FF928E"/>
</linearGradient>
<linearGradient id="paint7_linear_508_1695" x1="-515.299" y1="-964.556" x2="-491.362" y2="-959.585" gradientUnits="userSpaceOnUse">
<stop stop-color="#FEBBBA"/>
<stop offset="1" stop-color="#FF928E"/>
</linearGradient>
</defs>
</svg>
